<?xml version="1.0" encoding="utf-8"?>
<!-- Generator: Adobe Illustrator 18.1.1, SVG Export Plug-In . SVG Version: 6.00 Build 0) -->
<!DOCTYPE svg PUBLIC "-//W3C//DTD SVG 1.1//EN" "http://www.w3.org/Graphics/SVG/1.1/DTD/
svg11.dtd">


<svg version="1.1" id="deals-mid" xmlns="http://www.w3.org/2000/svg" xmlns:xlink="http://www.w3.org/1999/xlink" x="0px" y="0px"
	 width="100px" height="100px" viewBox="0 0 100 100" style="enable-background:new 0 0 100 100;" xml:space="preserve">

<g id="i-xxsml.i-xsml.i-sml.i-mdm.i-lrg">

<title>5g-mid</title>

<path fill="#666" d="M50,10.417c-21.875,0-39.583,17.708-39.583,39.583S28.125,89.583,50,89.583S89.583,71.875,89.583,50
	S71.875,10.417,50,10.417 M91.667,50c0,23.021-18.646,41.667-41.667,41.667S8.333,73.021,8.333,50S26.979,8.333,50,8.333
	S91.667,26.979,91.667,50z"/>

<path fill="#E60000" d="M37.031,64.583c-2.477-0.057-4.868-0.738-6.939-1.969c-0.495-0.294-0.657-0.933-0.363-1.428
	c0.294-0.494,0.934-0.656,1.428-0.363c1.763,1.048,3.803,1.628,5.898,1.677c4.171-0.001,7.215-2.76,7.215-6.563
	c0-4.246-2.33-6.863-6.395-7.188c-0.494,0-0.962,0.001-1.418,0.047l-4.006,0.416c-0.292,0.031-0.586-0.065-0.805-0.262
	c-0.219-0.197-0.344-0.479-0.344-0.774V37.292c0-0.575,0.466-1.042,1.042-1.042h11.979c0.575,0,1.042,0.466,1.042,1.042
	s-0.466,1.042-1.042,1.042H33.385v8.688l2.861-0.297c0.577-0.058,1.132-0.058,1.67-0.058c0.026,0,0.053,0.001,0.079,0.003
	c5.156,0.392,8.359,3.943,8.359,9.268C46.354,60.947,42.433,64.583,37.031,64.583z M63.193,63.868c-1.956,0-3.995-0.451-5.751-1.786
	c-2.865-2.179-4.317-6.244-4.317-12.082c0-3.327,0.788-11.259,8.087-13.065c3.868-0.957,8.43,0.419,9.762,2.944
	c0.268,0.509,0.073,1.139-0.436,1.407c-0.51,0.269-1.139,0.073-1.407-0.436c-0.692-1.313-4.003-2.738-7.418-1.893
	c-2.429,0.601-6.504,2.835-6.504,11.043c0,5.153,1.176,8.66,3.495,10.424c2.459,1.87,5.82,1.473,8.206,0.812
	c1.735-0.495,2.924-2.109,2.883-3.92l-0.001-5.232h-6.25c-0.575,0-1.042-0.466-1.042-1.042S62.966,50,63.542,50h7.292
	c0.575,0,1.042,0.466,1.042,1.042v6.25c0.062,2.735-1.748,5.191-4.401,5.949C66.219,63.589,64.732,63.868,63.193,63.868z"/>

</g>

</svg>
